<svg width="16" height="16" viewBox="0 0 16 16" fill="none" xmlns="http://www.w3.org/2000/svg">
<g clip-path="url(#clip0_166_1058)">
<path d="M8 0C12.4183 0 16 3.58172 16 8C16 12.4183 12.4183 16 8 16C3.58172 16 0 12.4183 0 8C0 3.58172 3.58172 0 8 0ZM12.0254 3.95605C10.3112 2.19805 7.33976 1.6493 4.9209 3.19824C2.78943 4.56335 1.95749 7.08162 2.4082 9.05566H11.3574C10.726 11.2573 7.7195 12.5491 5.5293 10.5176C5.01469 11.0297 4.50055 11.5419 3.98633 12.0537C4.56541 12.6697 5.32418 13.1257 6.06152 13.3877C7.07936 13.7493 8.12179 13.8239 9.18652 13.5996C10.1506 13.3965 11.0032 12.974 11.7432 12.333C12.7272 11.4805 13.3441 10.4054 13.6211 9.10645C13.7612 8.35862 13.7642 7.61168 13.6064 6.85059H4.68359C5.06728 5.84037 5.72665 5.11594 6.71387 4.74316C8.12094 4.21193 9.38762 4.50911 10.4834 5.49414C11.0026 4.97642 11.5139 4.46609 12.0254 3.95605Z" fill="#7059E2"/>
</g>
<defs>
<clipPath id="clip0_166_1058">
<rect width="16" height="16" rx="8" fill="white"/>
</clipPath>
</defs>
</svg>
